# xmcd CD database file
# 
# Track frame offsets:
#       150
#       14637
#       35112
#       55877
#       72697
#       91585
#       112895
#       133372
#       154340
#       173180
# 
# Disc length: 2602 seconds
# 
# Revision: 2
# Processed by: cddbd v1.4PL0 Copyright (c) Steve Scherf et al.
# Submitted via: Steven_Parker 1
# 
DISCID=8f0a280a
DTITLE=Kindred Spirit - Kindred Spirit
DYEAR=1995
DGENRE=Crossover
TTITLE0=Ask Me No Questions
TTITLE1=Weight Of The World
TTITLE2=Gravity
TTITLE3=What Are We Waiting For?
TTITLE4=The Devil
TTITLE5=Here In My Eyes
TTITLE6=Can't Wait For You
TTITLE7=Memories Run Deep
TTITLE8=Fear Of Falling
TTITLE9=I Still Want You
EXTD=
EXTT0=
EXTT1=
EXTT2=
EXTT3=
EXTT4=
EXTT5=
EXTT6=
EXTT7=
EXTT8=
EXTT9=
PLAYORDER=
